PathFileType	4	(X/Y/Z)	C:\Users\WrightLab\Desktop\Jo\P1_boxCal10.trc
DataRate	CameraRate	NumFrames	NumMarkers	Units	OrigDataRate	OrigDataStartFrame	OrigNumFrames
100.00	100.00	       55	19	mm	100.00	547	       625
Frame#	Time	Headset_Front			Headset_Back			Headset_Left			Headset_Right			Left_Shoulder			Right_Shoulder			Sternum			C7			Left Elbow			Right Elbow			Left Wrist			Right Wrist			Left ASIS			Right ASIS			S2			Left Knee			Right Knee			Left Ankle			Right Ankle			
		X1	Y1	Z1	X2	Y2	Z2	X3	Y3	Z3	X4	Y4	Z4	X5	Y5	Z5	X6	Y6	Z6	X7	Y7	Z7	X8	Y8	Z8	X9	Y9	Z9	X10	Y10	Z10	X11	Y11	Z11	X12	Y12	Z12	X13	Y13	Z13	X14	Y14	Z14	X15	Y15	Z15	X16	Y16	Z16	X17	Y17	Z17	X18	Y18	Z18	X19	Y19	Z19	

547	5.460																																		-362.73663	845.83875	2014.04651																			-393.53336	208.31540	2150.66748	
548	5.470																																		-358.44791	847.35779	2021.02515																			-400.27368	204.35539	2170.45068	
549	5.480																																		-354.56485	849.41895	2030.33716																			-407.70203	199.09589	2189.85132	
550	5.490																																		-351.20786	850.98022	2038.33362																			-415.94427	193.99887	2210.11182	
551	5.500																																		-348.68777	852.06378	2045.95337																			-425.72656	190.39247	2229.10718	
552	5.510																																		-345.70108	852.78333	2055.66919																			-436.24261	187.04243	2249.00244	
553	5.520																																		-343.54407	853.51398	2064.71338																			-445.89597	183.64671	2269.90088	
554	5.530																																		-342.17615	854.78552	2073.73999																			-457.23477	181.37889	2287.13208	
555	5.540																																		-340.51764	854.37598	2082.79590																			-468.96719	179.20731	2304.56519	
556	5.550																																		-338.92163	854.96454	2094.82251																			-479.85962	177.13338	2322.94653	
557	5.560																																		-338.04425	854.29181	2102.94556																			-491.17084	175.83691	2339.78760	
558	5.570																																		-337.47955	854.67657	2112.54468																			-503.01691	175.38113	2356.30151	
559	5.580																																		-337.09570	853.98560	2121.02148																			-515.20911	174.84839	2369.83032	
560	5.590																																		-336.89609	853.65265	2129.33936																			-525.30591	173.06747	2381.26025	
561	5.600																																		-336.63342	852.97009	2138.43555																			-535.76367	170.55351	2390.68921	
562	5.610																																		-336.17944	852.11383	2147.31763																			-544.91394	171.16779	2399.53198	
563	5.620																																		-336.47003	851.10199	2154.07788																			-550.25787	168.94754	2404.77441	
564	5.630																																		-336.25562	849.52576	2162.17676																			-550.52643	166.75076	2406.84595	
565	5.640																																		-336.23105	848.24530	2169.65015																			-546.48175	162.47592	2405.26294	
566	5.650																																		-336.06378	846.07269	2175.84766																			-541.33826	158.52562	2404.66968	
567	5.660																																		-335.94272	844.91205	2184.36963																			-537.23865	157.41237	2407.02856	
568	5.670																																		-335.50845	842.77441	2190.90991																			-533.53229	157.65179	2410.11938	
569	5.680																																		-336.08972	842.20380	2196.85352																			-532.80646	156.56470	2410.91016	
570	5.690																																		-335.59723	840.80206	2203.95850																			-532.98865	156.42160	2410.98169	
571	5.700																																		-335.09253	840.19727	2210.69458																			-533.89587	154.02287	2409.13965	
572	5.710																																		-335.63846	839.43652	2214.96997																			-535.50952	153.60423	2408.03125	
573	5.720																																		-335.34711	840.18396	2221.89746																			-535.49664	155.83716	2410.43286	
574	5.730																																		-335.34705	839.55402	2226.07104																			-535.65881	156.48839	2412.97437	
575	5.740																																		-334.83847	839.77258	2231.79028																			-536.17365	155.92130	2414.04297	
576	5.750																																		-334.30893	840.70428	2237.96899																			-537.60907	157.20171	2417.72339	
577	5.760																																		-334.57745	841.39044	2242.30444																			-538.90594	157.73549	2420.75488	
578	5.770																																		-334.60922	841.68585	2245.30493																			-539.37292	157.23056	2421.73389	
579	5.780																																		-334.15668	842.53992	2250.40723																			-539.15253	156.29033	2422.38232	
580	5.790																																		-335.13071	840.62036	2253.88525																			-539.35138	156.24431	2422.64307	
581	5.800																																		-335.39957	841.21484	2257.96680																			-539.78882	156.00003	2423.31860	
582	5.810																																		-335.04395	841.71417	2263.39185																			-539.84998	155.71860	2423.70215	
583	5.820																																		-334.73676	840.88306	2267.17627																			-539.07629	156.49982	2425.23071	
584	5.830																																		-333.97537	840.61200	2271.95093																			-539.31244	156.28789	2425.60010	
585	5.840																																		-334.27493	841.24841	2277.26978																			-539.33771	156.22018	2425.69434	
586	5.850																																		-333.73172	840.73517	2281.92261																			-539.03400	155.92424	2425.75415	
587	5.860																																		-333.14078	840.48492	2286.90308																			-538.85956	155.73860	2425.80420	
588	5.870																																		-332.50989	840.04486	2291.03809																			-538.84949	155.72983	2425.82959	
589	5.880																																		-332.40247	840.63763	2297.27588																			-538.83362	155.73430	2425.83740	
590	5.890																																		-331.96213	840.30676	2301.96167																			-538.82684	155.74446	2425.82617	
591	5.900																																		-331.71628	840.63239	2307.59424																			-538.81592	155.76791	2425.79565	
592	5.910																																		-332.05704	841.47321	2313.35571																			-538.80127	155.79408	2425.76416	
593	5.920																																		-331.72180	841.33319	2318.09424																			-538.44086	156.15227	2425.10425	
594	5.930																																		-332.08850	842.22430	2323.90820																			-538.39276	156.21074	2425.04883	
595	5.940																																		-332.00604	842.63007	2329.12231																			-538.33795	156.28102	2424.97925	
596	5.950																																		-332.36938	843.42126	2335.08594																			-538.13403	156.47589	2424.67188	
597	5.960																																		-332.08261	843.88531	2339.86963																			-537.84235	156.65930	2424.34058	
598	5.970																																		-332.35367	845.11639	2345.50854																			-537.58337	156.83838	2424.00610	
599	5.980																																		-332.02731	845.92230	2350.61499																			-537.23041	157.16127	2423.40234	
600	5.990																																		-331.40332	846.46326	2355.29175																			-537.20801	157.20435	2423.34839	
601	6.000																																		-331.47952	848.01050	2360.73315																			-538.03168	156.35197	2421.89551	
